PathFileType	4	(X/Y/Z)	SUBJ11_0_static_RCNL2025.trc
DataRate	CameraRate	NumFrames	NumMarkers	Units	OrigDataRate	OrigDataStartFrame	OrigNumFrames
100	100	4	25	mm	100	16	120
Frame#	Time	R_Shoulder			L_Shoulder			C7			J_Notch			R_Elbow			L_Elbow			R_Wrist			L_Wrist			R_Asis			L_Asis			Sacral			Thoracic			Sternum			R_Thigh_Lateral			R_Knee_Lateral			R_Shank_Lateral			R_Ankle_Lateral			R_Heel			R_Toe			L_Thigh_Lateral			L_Knee_Lateral			L_Shank_Lateral			L_Ankle_Lateral			L_Heel			L_Toe		
		X1	Y1	Z1	X2	Y2	Z2	X3	Y3	Z3	X4	Y4	Z4	X5	Y5	Z5	X6	Y6	Z6	X7	Y7	Z7	X8	Y8	Z8	X9	Y9	Z9	X10	Y10	Z10	X11	Y11	Z11	X12	Y12	Z12	X13	Y13	Z13	X14	Y14	Z14	X15	Y15	Z15	X16	Y16	Z16	X17	Y17	Z17	X18	Y18	Z18	X19	Y19	Z19	X20	Y20	Z20	X21	Y21	Z21	X22	Y22	Z22	X23	Y23	Z23	X24	Y24	Z24	X25	Y25	Z25
16	0.15000000	-332.468018	1317.052490	17.030964	-335.928497	1359.721313	-420.068207	-400.959412	1423.044312	-208.654373	-266.906036	1322.055664	-214.253952	-388.012543	1051.316406	125.973900	-338.864075	1076.391602	-543.447510	-321.633041	801.105957	142.429054	-265.959213	824.871582	-569.877502	-255.344711	905.506775	-106.976822	-275.186768	917.161804	-356.951996	-447.063568	947.391541	-206.712006	-468.569611	1204.294189	-207.791138	-218.613632	1166.968018	-228.820435	-317.179230	576.138855	-7.002425	-372.456207	460.834869	-83.519569	-388.821960	246.379395	-20.018251	-409.382660	64.579018	-81.846985	-450.834167	54.450573	-136.262695	-271.985504	43.085712	-97.109947	-369.270630	584.989563	-426.218079	-366.566437	478.205597	-373.918213	-412.373077	240.049194	-415.839264	-409.072876	64.103439	-361.299744	-452.891846	62.358810	-298.727203	-248.833771	64.476089	-348.695404
17	0.16000000	-332.510590	1317.205688	17.172701	-335.804138	1359.709229	-419.872955	-400.960938	1423.027710	-208.664047	-266.762268	1322.081299	-214.214081	-388.095490	1051.486572	126.153473	-338.859528	1076.601440	-543.678162	-321.791016	801.197723	142.771706	-265.827888	825.011810	-570.296173	-255.265137	905.529419	-106.964287	-275.186615	917.066406	-356.826813	-447.166473	947.437500	-206.636475	-468.600739	1204.272827	-207.747513	-218.603485	1166.997925	-228.849915	-317.126526	576.078552	-7.081709	-372.456268	460.858215	-83.521957	-389.047028	246.666428	-19.780445	-409.286804	64.454788	-81.874741	-451.018402	54.513779	-136.438843	-271.887695	42.954315	-97.179047	-369.214386	584.962158	-426.194702	-366.567535	478.238892	-373.813782	-412.760773	240.174881	-416.205505	-409.158661	64.779037	-361.958679	-452.917694	62.469040	-298.729828	-248.950333	64.446815	-348.847595
18	0.17000000	-332.565369	1317.365967	17.310255	-335.760986	1359.739380	-419.779724	-400.956696	1423.064575	-208.685547	-266.831055	1322.126099	-214.316040	-388.806580	1052.049072	126.911179	-338.748840	1076.748535	-543.822632	-321.984665	801.495819	143.429554	-265.739677	825.141815	-570.580383	-255.219177	905.508911	-106.921242	-275.269470	917.171631	-356.852539	-447.177399	947.443176	-206.629013	-468.603638	1204.257202	-207.744537	-218.691742	1166.980347	-228.909195	-317.117950	576.093018	-7.078955	-372.566315	460.599274	-83.526176	-388.979370	246.585480	-19.860867	-409.375458	64.552612	-81.790108	-451.167206	54.571613	-136.590912	-272.103058	43.376247	-97.101967	-368.968506	584.953186	-425.981537	-366.671631	478.217743	-373.684875	-412.863068	240.062653	-416.359070	-409.145264	64.144783	-361.391205	-452.826508	62.262196	-298.818207	-249.173615	64.415771	-348.879456
19	0.18000000	-332.591156	1317.374390	17.339050	-335.711731	1359.800537	-419.709229	-400.966064	1423.133789	-208.637421	-267.044342	1322.039551	-214.432495	-389.379456	1052.514160	127.437073	-338.545532	1076.815430	-543.946045	-322.019028	801.709564	143.426270	-265.724205	825.208069	-570.927979	-255.235855	905.577209	-106.801193	-275.380920	917.218384	-356.778748	-447.190460	947.436951	-206.605820	-468.663605	1204.266357	-207.814423	-218.688232	1167.088379	-228.831512	-316.935547	576.002258	-7.142966	-372.704468	460.703491	-83.583038	-387.961182	245.871994	-20.755213	-409.500580	64.549110	-81.720657	-451.135040	54.529148	-136.617050	-272.211792	43.623234	-96.981842	-368.769958	584.932434	-425.751129	-366.694214	478.106537	-373.674408	-412.413696	240.042618	-415.876007	-409.106445	64.121140	-361.256897	-452.910187	62.316212	-298.768524	-249.280807	64.409874	-348.879059
